<svg xmlns="http://www.w3.org/2000/svg" viewBox="0 0 740 740" width="740" height="740"><defs><clipPath id="artboard-12677952920416061311"><rect x="0" y="0" width="800" height="800"/></clipPath><linearGradient id="5718696385732505182" x1="162.5291428999468" y1="-250.55011726148206" x2="162.07810974121094" y2="1051.263793945312" gradientTransform="matrix(0.001351351,0,0,0.001351351,0.283783784,0.283783784)"><stop stop-color="#3399cc" /><stop offset="1" stop-color="#0f2f3f" /></linearGradient></defs><g transform="matrix(1,0,0,1,458,456)">
<g transform="matrix(1,0,0,1,-480,-480)" clip-path="url(#artboard-12677952920416061311)">
	<g>
		<g transform="matrix(1,0,0,1,232,234)">
			<path d="M-209.9999999999999,-170.00000000000003 C-209.9999999999999,-192.07139111116058 -192.07139111116044,-210.00000000000003 -169.9999999999999,-210.00000000000003 L490.0000000000001,-210.00000000000003 C512.0713911111607,-210.00000000000003 530.0000000000001,-192.07139111116058 530.0000000000001,-170.00000000000003 L530.0000000000001,490 C530.0000000000001,512.0713911111606 512.0713911111607,530 490.0000000000001,530 L-169.9999999999999,530 C-192.07139111116044,530 -209.9999999999999,512.0713911111606 -209.9999999999999,490 L-209.9999999999999,-170.00000000000003 Z" fill="url('#5718696385732505182')"/>
		</g>
		<g transform="matrix(1,0,0,1,232,234)">
			<g>
				<path d="M-150,-138 C-150,-144.62141733334818 -144.62141733334818,-150 -138,-150 L138,-150 C144.62141733334818,-150 150,-144.62141733334818 150,-138 L150,138 C150,144.62141733334818 144.62141733334818,150 138,150 L-138,150 C-144.62141733334818,150 -150,144.62141733334818 -150,138 L-150,-138 Z" fill="#35363b"/>
			</g>
			<g>
				<path d="M-150,-137.99999999999997 C-150,-144.62141733334812 -144.62141733334818,-149.99999999999994 -138,-149.99999999999994 L138,-149.99999999999994 C144.62141733334818,-149.99999999999994 150,-144.62141733334812 150,-137.99999999999997 Q150,-99.99999999999996 150,-99.99999999999996 C150,-99.99999999999996 150,-99.99999999999996 150,-99.99999999999996 C150,-99.99999999999996 -150,-99.99999999999996 -150,-99.99999999999996 C-150,-99.99999999999996 -150,-99.99999999999996 -150,-99.99999999999996 Q-150,-99.99999999999996 -150,-137.99999999999997 Z" fill="#5b5d66"/>
			</g>
			<g>
				<g transform="matrix(1,0,0,1,-9.510643005,11)">
					<path d="M128,-144 C128,-144 144,-128 144,-128" fill="none" stroke="#ffffff" stroke-linecap="round"/>
				</g>
				<g transform="matrix(1,0,0,1,-9.510643005,11)">
					<path d="M144,-144 C144,-144 128,-128 128,-128" fill="none" stroke="#ffffff" stroke-linecap="round"/>
				</g>
			</g>
		</g>
		<g transform="matrix(1,0,0,1,232,234)">
			<g transform="matrix(1,0,0,1,320,0)">
				<path d="M-150,-138 C-150,-144.62141733334818 -144.62141733334818,-150 -138,-150 L138,-150 C144.62141733334818,-150 150,-144.62141733334818 150,-138 L150,138 C150,144.62141733334818 144.62141733334818,150 138,150 L-138,150 C-144.62141733334818,150 -150,144.62141733334818 -150,138 L-150,-138 Z" fill="#35363b"/>
			</g>
			<g transform="matrix(1,0,0,1,320,0)">
				<path d="M-150,-137.99999999999997 C-150,-144.62141733334812 -144.62141733334818,-149.99999999999994 -138,-149.99999999999994 L138,-149.99999999999994 C144.62141733334818,-149.99999999999994 150,-144.62141733334812 150,-137.99999999999997 Q150,-99.99999999999996 150,-99.99999999999996 C150,-99.99999999999996 150,-99.99999999999996 150,-99.99999999999996 C150,-99.99999999999996 -150,-99.99999999999996 -150,-99.99999999999996 C-150,-99.99999999999996 -150,-99.99999999999996 -150,-99.99999999999996 Q-150,-99.99999999999996 -150,-137.99999999999997 Z" fill="#5b5d66"/>
			</g>
			<g transform="matrix(1,0,0,1,320,0)">
				<g transform="matrix(1,0,0,1,-9.510643005,11)">
					<path d="M128,-144 C128,-144 144,-128 144,-128" fill="none" stroke="#ffffff" stroke-linecap="round"/>
				</g>
				<g transform="matrix(1,0,0,1,-9.510643005,11)">
					<path d="M144,-144 C144,-144 128,-128 128,-128" fill="none" stroke="#ffffff" stroke-linecap="round"/>
				</g>
			</g>
		</g>
		<g transform="matrix(1,0,0,1,232,234)">
			<g transform="matrix(1,0,0,1,0,320)">
				<path d="M-150.0000000000001,-137 C-150.0000000000001,-143.62141733334818 -144.6214173333483,-149 -138.0000000000001,-149 L457.9999999999999,-149 C464.62141733334806,-149 469.9999999999999,-143.62141733334818 469.9999999999999,-137 L469.9999999999999,139 C469.9999999999999,145.62141733334818 464.62141733334806,151 457.9999999999999,151 L-138.0000000000001,151 C-144.6214173333483,151 -150.0000000000001,145.62141733334818 -150.0000000000001,139 L-150.0000000000001,-137 Z" fill="#35363b"/>
			</g>
			<g transform="matrix(1,0,0,1,0,320)">
				<path d="M-150,-137.99999999999997 C-150,-144.62141733334812 -144.62141733334818,-149.99999999999994 -138,-149.99999999999994 L458,-149.99999999999994 C464.6214173333482,-149.99999999999994 470,-144.62141733334812 470,-137.99999999999997 Q470,-99.99999999999996 470,-99.99999999999996 C470,-99.99999999999996 470,-99.99999999999996 470,-99.99999999999996 C470,-99.99999999999996 -150,-99.99999999999996 -150,-99.99999999999996 C-150,-99.99999999999996 -150,-99.99999999999996 -150,-99.99999999999996 Q-150,-99.99999999999996 -150,-137.99999999999997 Z" fill="#5b5d66"/>
			</g>
			<g transform="matrix(1,0,0,1,0,320)">
				<g transform="matrix(1,0,0,1,310.489356995,11)">
					<path d="M128,-144 C128,-144 144,-128 144,-128" fill="none" stroke="#ffffff" stroke-linecap="round"/>
				</g>
				<g transform="matrix(1,0,0,1,310.489356995,11)">
					<path d="M144,-144 C144,-144 128,-128 128,-128" fill="none" stroke="#ffffff" stroke-linecap="round"/>
				</g>
			</g>
		</g>
	</g>
</g></g></svg>